Coordinates
version=1
nRows=10
nColumns=40
inDegrees=yes

Units are S.I. units (second, meters, Newtons, ...)
Angles are in degrees.

endheader
time	pelvis_tilt	pelvis_list	pelvis_rotation	pelvis_tx	pelvis_ty	pelvis_tz	hip_flexion_r	hip_adduction_r	hip_rotation_r	knee_angle_r	knee_angle_r_beta	ankle_angle_r	subtalar_angle_r	mtp_angle_r	hip_flexion_l	hip_adduction_l	hip_rotation_l	knee_angle_l	knee_angle_l_beta	ankle_angle_l	subtalar_angle_l	mtp_angle_l	lumbar_extension	lumbar_bending	lumbar_rotation	arm_flex_r	arm_add_r	arm_rot_r	elbow_flex_r	pro_sup_r	wrist_flex_r	wrist_dev_r	arm_flex_l	arm_add_l	arm_rot_l	elbow_flex_l	pro_sup_l	wrist_flex_l	wrist_dev_l
      0.00000000	     -0.07779752	      3.26610477	      3.81218754	     -0.99377085	      0.94876859	     -1.34368784	     -9.07959703	     -3.48285359	    -16.44694056	    -16.21609597	     -0.28302427	     15.15482459	      6.93057891	     -7.86624997	     22.51299667	      4.49387836	     19.28420101	    -11.23350698	     -0.19606168	     -3.90069467	     -3.80631394	     -0.40206112	     -4.79779528	     -5.24032530	      3.59134980	      7.46984975	    -10.52657787	     -9.31357010	     23.88910980	     89.95437384	      0.00000000	      0.00000000	     -8.72777920	     10.75239966	      3.86315029	     14.20052258	     89.95437384	      0.00000000	      0.00000000
      0.01000000	      0.05280728	      3.40841667	      3.59979040	     -0.98481877	      0.94789443	     -1.34688134	     -9.83768494	     -3.90403321	    -16.44067182	    -16.23207051	     -0.28330307	     15.13344679	      7.12636345	     -8.25986193	     22.10369461	      4.22491190	     19.30458018	    -11.73901313	     -0.20488443	     -3.79443310	     -3.38897998	     -0.45403135	     -4.75329804	     -5.40950424	      3.58145141	      7.30591221	    -10.40558020	     -9.13923871	     23.67337500	     89.95437384	      0.00000000	      0.00000000	     -8.54990706	     10.80000370	      3.92850795	     13.61326130	     89.95437384	      0.00000000	      0.00000000
      0.02000000	     -0.12079486	      3.34103876	      3.37334442	     -0.97605786	      0.94641331	     -1.34986080	    -10.03338941	     -4.14411281	    -16.27987703	    -16.63327125	     -0.29030535	     14.86958984	      6.93836032	     -8.17280895	     21.98164845	      4.17877804	     18.98795686	    -12.24167387	     -0.21365751	     -3.82185114	     -3.18763827	     -0.44906627	     -4.39418828	     -5.38702003	      3.60118583	      6.93547404	    -10.30171620	     -9.06502395	     23.75698351	     89.95437384	      0.00000000	      0.00000000	     -8.72313778	     10.87457817	      3.96252661	     13.77273246	     89.95437384	      0.00000000	      0.00000000
      0.03000000	      0.33464482	      4.10732937	      3.08420004	     -0.96637316	      0.94616477	     -1.35407440	    -11.20145794	     -5.60715591	    -17.61756637	    -16.61929220	     -0.29006137	     13.43403497	      9.11168164	    -18.47618446	     20.75497523	      2.95240922	     18.50253013	    -12.30059677	     -0.21468591	     -3.66428788	     -0.76619950	     -1.44702368	     -4.69549932	     -6.15911270	      3.53308929	      6.82009639	    -10.23323500	     -8.57093571	     23.32847562	     89.95437384	      0.00000000	      0.00000000	     -8.37071436	     10.74423932	      5.13317340	     12.90426056	     89.95437384	      0.00000000	      0.00000000
      0.04000000	      0.13001272	      4.00909462	      2.90124236	     -0.95717824	      0.94462434	     -1.35752152	    -11.35928401	     -5.82905697	    -17.35311321	    -17.08313959	     -0.29815703	     13.15272550	      8.81991698	    -18.10814451	     20.55645845	      2.88180834	     18.18296560	    -12.87022662	     -0.22462783	     -3.70190646	     -0.66300253	     -1.41235763	     -4.22631347	     -6.06151857	      3.49882995	      6.37335096	    -10.16845845	     -8.51604119	     23.43805481	     89.95437384	      0.00000000	      0.00000000	     -8.59254558	     10.78938608	      5.14203415	     13.12237507	     89.95437384	      0.00000000	      0.00000000
      0.05000000	      0.61598326	      4.50378717	      2.54657072	     -0.94718630	      0.94444593	     -1.36129565	    -12.60634408	     -6.79246371	    -17.83334814	    -17.00001137	     -0.29670617	     13.09276064	      9.86667259	    -18.28320980	     19.40947356	      2.11284209	     18.33482660	    -13.18622542	     -0.23014305	     -3.85941608	      1.05825434	     -1.17530509	     -4.48910028	     -6.58233602	      3.58684469	      6.22072274	    -10.09170522	     -8.19332012	     22.97835471	     89.95437384	      0.00000000	      0.00000000	     -8.17223122	     10.69646833	      5.84778062	     12.24945930	     89.95437384	      0.00000000	      0.00000000
      0.06000000	      0.59396009	      4.56665260	      2.45966870	     -0.93772379	      0.94356824	     -1.36505743	    -13.13225791	     -7.16334547	    -17.93925535	    -17.18182409	     -0.29987940	     12.98716879	      9.79314403	    -18.15103094	     19.22330977	      2.02600439	     19.27067058	    -13.57460532	     -0.23692156	     -5.33112001	      1.77818877	     -0.81597005	     -4.19752560	     -6.65265130	      3.50014225	      5.90928546	     -9.98776303	     -8.12598273	     22.69569115	     89.95437384	      0.00000000	      0.00000000	     -8.01215988	     10.70412085	      5.88270301	     11.91034590	     89.95437384	      0.00000000	      0.00000000
      0.07000000	      1.03825023	      5.55044662	      1.95124897	     -0.92794979	      0.94392379	     -1.36893253	    -13.99736133	     -8.79931955	    -18.16841979	    -17.77888681	     -0.31030011	     12.50294151	     10.51340740	    -18.20313085	     17.92538447	      0.89177537	     19.99853384	    -12.65619504	     -0.22089227	     -7.52433522	      1.91482282	     -0.72360455	     -4.46863114	     -7.74171650	      3.69127374	      5.62216402	     -9.78245208	     -8.20781397	     22.41467131	     89.95437384	      0.00000000	      0.00000000	     -7.80756278	     10.74764432	      6.49219965	     11.69714783	     89.95437384	      0.00000000	      0.00000000
      0.08000000	      1.01305820	      5.87664801	      1.92980291	     -0.91854268	      0.94347568	     -1.37335759	    -14.45930379	     -9.51522136	    -18.38425121	    -18.12714455	     -0.31637836	     12.19030895	     10.49226827	    -18.02649676	     17.70489041	      0.48064262	     19.84047213	    -12.81730772	     -0.22370422	     -8.42831260	      1.55442337	     -0.67577478	     -4.21104786	     -8.06072755	      3.53550022	      5.33673234	     -9.70767323	     -8.10021851	     21.99684121	     89.95437384	      0.00000000	      0.00000000	     -7.51684198	     10.71708209	      6.50674953	     11.26451188	     89.95437384	      0.00000000	      0.00000000
      0.09000000	      1.15869341	      6.48652555	      1.82000266	     -0.90906560	      0.94344734	     -1.37792213	    -14.93233155	    -10.68577729	    -18.88099939	    -18.87089036	     -0.32935917	     11.52453203	     10.64931081	    -17.76557289	     17.32574830	     -0.14771071	     20.22501724	    -13.30857445	     -0.23227844	     -9.41751099	      1.37693995	     -0.73859397	     -4.18290710	     -8.68510959	      3.38624995	      5.03588776	     -9.58060537	     -8.28446243	     21.77939400	     89.95437384	      0.00000000	      0.00000000	     -7.28224321	     10.71526981	      6.61357956	     11.05062598	     89.95437384	      0.00000000	      0.00000000
